<?xml version="1.0" encoding="utf-8"?>
<!-- Generator: Adobe Illustrator 16.0.0, SVG Export Plug-In . SVG Version: 6.00 Build 0)  -->
<!DOCTYPE svg PUBLIC "-//W3C//DTD SVG 1.1//EN" "http://www.w3.org/Graphics/SVG/1.1/DTD/svg11.dtd">
<svg version="1.1" id="Layer_1" xmlns="http://www.w3.org/2000/svg" xmlns:xlink="http://www.w3.org/1999/xlink" x="0px" y="0px"
	 width="1683.78px" height="414.707px" viewBox="0 0 1683.78 414.707" enable-background="new 0 0 1683.78 414.707"
	 xml:space="preserve">
<path fill="#231815" d="M1138.052,128.405c17.55,0,31.978,6.422,44.39,17.002c1.457,1.458,1.667,3.668,0.199,5.105
	c-2.753,2.957-5.467,5.666-8.219,8.604c-1.445,1.625-2.917,1.479-4.771-0.208c-8.582-7.457-19.882-12.396-31.057-12.396
	c-25.934,0-45.827,21.895-45.827,47.494c0,25.375,19.894,47.309,45.827,47.309c15.162,0,25.59-5.481,27.414-6.208v-20.46h-17.883
	c-2.022,0-3.502-1.456-3.502-3.329v-10.586c0-1.997,1.479-3.453,3.502-3.453h33.224c1.819,0,3.291,1.645,3.291,3.453
	c0,14.627,0.18,29.643,0.18,44.227c0,0.913-0.711,2.373-1.452,2.936c0,0-18.82,12.061-45.315,12.061
	c-36.351,0-65.752-29.057-65.752-65.595C1072.3,157.823,1101.701,128.405,1138.052,128.405z"/>
<path fill="#231815" d="M1316.048,184.455c6.603-6.825,10.36-15.667,10.36-24.693c0-19.619-16.229-35.577-36.122-35.577
	c-19.802,0-35.907,15.958-35.907,35.577v2.465h20.475v-2.465c0-8.577,7.061-15.788,15.433-15.788
	c8.616,0,15.628,7.089,15.628,15.788c0,8.353-7.348,15.442-15.983,15.442h-2.478v20.456h2.478c11.755,0,21.319,9.229,21.319,20.617
	c0,11.632-9.411,21.109-20.964,21.109s-20.934-9.478-20.934-21.109v-2.462h-20.486v2.462c0,10.902,4.282,21.292,12.122,29.298
	c7.867,7.722,18.277,11.938,29.298,11.938c11.032,0,21.453-4.217,29.306-11.938c7.813-7.807,12.114-18.197,12.114-29.298
	c0-10.654-4.423-20.943-12.481-29.03C1318.227,186.309,1317.18,185.33,1316.048,184.455z"/>
<path fill="#231815" d="M1393.157,175.164c-0.038,0-0.08,0-0.153,0l26.943-44.643h-23.854l-40.276,66.463
	c-3.426,6.439-5.279,13.771-5.279,20.6c0,23.326,19.11,42.291,42.62,42.291c23.411,0,42.479-18.965,42.479-42.291
	C1435.636,194.212,1416.568,175.164,1393.157,175.164z M1393.157,239.908c-12.222,0-22.176-9.98-22.176-22.324
	c0-12.311,9.954-22.312,22.176-22.312c12.103,0,21.962,10.001,21.962,22.312C1415.119,229.701,1405.096,239.908,1393.157,239.908z"
	/>
<path fill="#231815" d="M1520.834,185.146c-8.433-8.129-19.771-12.59-31.824-12.59c-1.403,0-3.36,0-5.337,0.102l5.838-22.186
	l42.283,0.163v-20.093h-58.133l-16.136,59.515l19.844,5.56l0.875-0.407c3.556-1.812,7.068-2.689,10.766-2.689
	c13.112,0,24.206,11.124,24.206,24.225c0,12.875-10.85,23.369-24.206,23.369c-7.852,0-15.287-3.854-19.894-10.311l-1.434-2.037
	l-16.79,12.019l1.449,2.038c1.709,2.343,3.359,4.217,4.938,5.623c8.414,8.25,19.366,12.611,31.729,12.611
	c12.298,0,23.583-4.461,31.886-12.611c8.456-8.292,13.15-19.172,13.15-30.701C1534.046,204.845,1529.236,193.356,1520.834,185.146z"
	/>
<path fill="#231815" d="M617.721,244.025l1.437,3.115C618.883,246.001,618.394,244.939,617.721,244.025z"/>
<path fill="#231815" d="M624.916,246.576l-1.512-3.273l-48.158-106.263l-0.772-1.713c-1.619-2.762-4.595-4.627-8.045-4.627
	c-3.147,0-5.912,1.542-7.605,3.943c-0.653,0.919-1.114,1.948-1.402,3.085l-48.236,105.706l-1.296,2.806
	c-0.224,0.787-0.375,1.624-0.375,2.462c0,5.184,4.176,9.361,9.341,9.361c3.513,0,6.523-1.973,8.129-4.82
	c0.216-0.516,0.451-1.009,0.665-1.498c3.29-7.394,6.651-14.718,9.844-22.111h61.443l10.272,22.646l0.107,0.214
	c1.445,3.276,4.702,5.569,8.527,5.569c5.151,0,9.341-4.178,9.341-9.361C625.183,247.994,625.076,247.263,624.916,246.576z
	 M542.831,213.458l22.9-51.481h0.954l23.107,51.481H542.831z"/>
<path fill="#231815" d="M838.815,130.779c-0.321-0.035-0.596-0.188-0.933-0.188c-0.333,0-0.608-0.034-0.933,0h-73.604
	c-0.313-0.034-0.588,0-0.921,0c-0.333,0-0.611,0.153-0.937,0.188c-4.389,0.481-7.821,4.05-7.821,8.542
	c0,4.494,3.414,8.064,7.783,8.561h1.949h27.283v101.024h0.111c0.038,5.065,4.052,9.11,9.071,9.259
	c0.092,0.008,0.184,0.062,0.283,0.062c0.103,0,0.183-0.054,0.282-0.062c5.043-0.148,9.106-4.235,9.106-9.343h0.08v-100.94h27.295
	h1.945c4.351-0.497,7.775-4.067,7.775-8.561C846.633,134.83,843.178,131.261,838.815,130.779z"/>
<path fill="#231815" d="M885.453,130.492h-0.947c-4.855,0.241-8.728,4.041-9.061,8.884c-0.02,0.21-0.08,0.438-0.08,0.665
	c0,0.229,0.061,0.459,0.08,0.688v107.466c-0.02,0.229-0.08,0.459-0.08,0.665c0,0.229,0.061,0.459,0.08,0.707
	c0.283,4.156,3.227,7.588,7.164,8.59c0.765,0.207,1.552,0.329,2.374,0.329c0.818,0,1.602-0.122,2.358-0.329
	c3.62-0.917,6.407-3.868,7.092-7.55v-3.471V141.791v-3.473C893.642,133.992,889.961,130.701,885.453,130.492z"/>
<path fill="#231815" d="M1045.299,139.235c-0.55-4.442-4.197-7.891-8.762-8.013h-0.539c-4.533,0.134-8.169,3.53-8.738,7.951
	c-0.023,0.142-0.062,0.306-0.092,0.468v1.447c0.03,0.141,0.068,0.306,0.092,0.468v81.897h-0.207l-1.115-1.204l-76.215-86.892
	l-2.26-2.642c-2.833-2.313-6.717-2.752-10-1.252c-0.662,0.302-1.308,0.656-1.908,1.12l-0.719,0.615
	c-1.158,1.093-1.67,1.701-2.163,3.112c-0.704,2.015-0.245,4.832-0.283,6.965v105.216c-0.019,0.223-0.073,0.467-0.073,0.711
	c0,0.245,0.055,0.49,0.073,0.715c0.367,4.584,4.025,8.193,8.64,8.414c0.152,0.02,0.306,0.039,0.455,0.039
	c0.164,0,0.306-0.02,0.47-0.039c4.76-0.221,8.524-4.052,8.689-8.8c0-0.122,0.019-0.226,0.019-0.329c0-0.1-0.019-0.184-0.019-0.305
	v-83.674h0.034l77.461,88.345c0.134,0.184,0.241,0.401,0.367,0.558c0.149,0.176,0.348,0.311,0.52,0.486
	c2.084,2.137,4.97,3.077,7.783,2.794c1.113-0.11,2.214-0.397,3.246-0.901c0.711-0.341,1.395-0.758,2.019-1.293
	c0.623-0.527,1.139-1.131,1.578-1.781c0.96-1.354,1.472-2.92,1.647-4.511v-1.801V141.517c0.051-0.287,0.092-0.55,0.123-0.856v-0.612
	C1045.391,139.765,1045.35,139.499,1045.299,139.235z"/>
<path fill="#231815" d="M643.013,139.797c0,0.352,0.061,0.687,0.104,1.017v-2.013C643.074,139.155,643.013,139.466,643.013,139.797z
	"/>
<path fill="#231815" d="M737.152,242.561l-24.458-35.865c15.83-6.388,26.916-20.225,26.916-36.964
	c0-21.635-17.81-38.922-39.642-38.922h-42.765h-2.302c-4.167,0.52-7.416,3.823-7.871,7.992v2.013v106.793v2.096
	c0.516,4.77,4.492,8.463,9.408,8.463c4.603,0,8.452-3.279,9.323-7.638v-3.731v-38.461h27.475l27.417,44.333l0.038,0.038
	c1.587,3.227,4.848,5.459,8.701,5.459c5.397,0,9.763-4.381,9.763-9.771c0-1.101-0.222-2.159-0.55-3.157
	C738.272,244.285,737.764,243.349,737.152,242.561z M666.148,192.653v-44.184h32.34c11.82,0,22.203,9.811,22.203,21.635
	c0,12.571-10.383,22.549-22.203,22.549H666.148z"/>
<g>
	
		<rect x="204.789" y="129.227" transform="matrix(0.7071 -0.7071 0.7071 0.7071 -22.6122 203.8811)" fill="#FF3B31" width="60.035" height="0.02"/>
	<path fill="#FF3B31" d="M258.51,195.304c-0.016-0.013-0.027-0.028-0.042-0.044l0,0C258.483,195.275,258.494,195.291,258.51,195.304
		z"/>
	<path fill="#FF3B31" d="M257.428,194.277c0.34,0.34,0.692,0.656,1.04,0.982l0,0c-0.39-0.369-0.784-0.726-1.166-1.108
		L257.428,194.277z"/>
	<path opacity="0.7" fill="#FF3B31" d="M300.965,237.843l-42.54-42.54l-87.358,87.354c11.063,10.555,26.033,17.047,42.536,17.047
		c16.687,0,31.817-6.645,42.922-17.417c0.222-0.214,0.455-0.421,0.677-0.643l43.778-43.782L300.965,237.843z"/>
	<path opacity="0.8" fill="#FF3B31" d="M256.816,193.696c-24.164-23.657-62.912-23.518-86.889,0.434l-0.046,0.046
		c-24.106,24.134-24.106,63.244,0.023,87.37l0.1,0.099c0.344,0.345,0.707,0.673,1.062,1.013l87.358-87.354L256.816,193.696z"/>
	
		<rect x="300.968" y="237.834" transform="matrix(-0.6126 -0.7904 0.7904 -0.6126 297.3565 621.4421)" fill="#FF3B31" width="0.025" height="0.022"/>
	
		<rect x="249.623" y="216.556" transform="matrix(-0.7071 -0.7071 0.7071 -0.7071 324.3477 567.4816)" fill="#FF3B31" width="60.16" height="0.021"/>
	<path fill="#FF3B31" d="M257.428,194.277c-0.046-0.042-0.088-0.08-0.13-0.124c-0.157-0.159-0.325-0.302-0.481-0.457l1.609,1.607
		l0.015-0.013L257.428,194.277z"/>
	<path fill="#FF3B31" d="M431.479,193.572c0.191,0.189,0.394,0.367,0.588,0.558l-43.694-43.694l-0.015,0.019L431.479,193.572z"/>
	<path opacity="0.85" fill="#FF3B31" d="M169.928,194.13c23.977-23.952,62.725-24.091,86.889-0.434l-43.229-43.228L169.928,194.13z"
		/>
	<polygon fill="#FF3B31" points="388.358,150.455 388.373,150.436 345.83,107.896 345.814,107.909 	"/>
	
		<rect x="292.2" y="216.609" transform="matrix(0.7071 -0.7071 0.7071 0.7071 -58.8028 291.2802)" fill="#FF3B31" width="60.009" height="0.024"/>
	<path opacity="0.9" fill="#FF3B31" d="M343.414,195.396l0.015,0.017l1.136-1.135l0.126-0.126l-0.126,0.126
		c0.042-0.042,0.088-0.08,0.13-0.124c23.935-23.933,62.605-24.116,86.785-0.581l-43.121-43.117L343.414,195.396z"/>
	<path opacity="0.75" fill="#FF3B31" d="M258.468,195.26c0.015,0.016,0.026,0.031,0.042,0.044
		C258.494,195.291,258.483,195.275,258.468,195.26l-0.027,0.031l42.54,42.538l42.433-42.433l-42.54-42.542L258.468,195.26z"/>
	<path fill="#FF3B31" d="M258.44,195.291l0.027-0.031c-0.348-0.327-0.7-0.642-1.04-0.982L258.44,195.291z"/>
	<path opacity="0.9" fill="#FF3B31" d="M257.428,194.277l-0.126-0.126c0.382,0.382,0.776,0.74,1.166,1.108l42.406-42.406
		l-44.837-44.836l-42.448,42.45l43.229,43.228c0.156,0.155,0.325,0.298,0.481,0.457C257.34,194.197,257.382,194.235,257.428,194.277
		z"/>
	
		<rect x="312.835" y="121.571" transform="matrix(0.7071 -0.7071 0.7071 0.7071 -6.2933 288.1121)" opacity="0.95" fill="#FF3B31" width="63.559" height="60.162"/>
	<path fill="#FF3B31" d="M300.996,88.662c-0.268,0-0.535,0.013-0.811,0.017c-15.536,0.201-31.014,6.214-42.876,18.066
		c0,0.004-0.008,0.01-0.012,0.014c-0.004,0.007-0.012,0.011-0.016,0.015l-1.246,1.244l44.837,44.836l44.941-44.945l-1.767-1.764
		c-11.774-11.445-26.973-17.268-42.241-17.466C301.539,88.675,301.264,88.662,300.996,88.662z"/>
	<path fill="#FF3B31" d="M365.968,160.759c-0.191-0.195-0.367-0.397-0.562-0.589l-0.042-0.044c-0.191-0.193-0.398-0.371-0.589-0.562
		L365.968,160.759z"/>
	<path opacity="0.35" fill="#FF3B31" d="M300.996,237.847l43.801,43.798c11.155,11.159,26.568,18.06,43.595,18.06
		c16.438,0,31.354-6.445,42.406-16.928l-87.37-87.364L300.996,237.847z"/>
	<path opacity="0.6" fill="#FF3B31" d="M432.087,281.546c23.938-23.936,24.122-62.603,0.581-86.782l-1.189-1.192
		c-24.179-23.535-62.85-23.352-86.785,0.581c-0.042,0.044-0.088,0.082-0.13,0.124l-1.136,1.135l87.37,87.364
		c0.401-0.375,0.803-0.746,1.192-1.132L432.087,281.546z"/>
</g>
</svg>
